PathFileType	4	(X/Y/Z)	T1_P2_Vision_NoMovement_3_0-731.trc
DataRate	CameraRate	NumFrames	NumMarkers	Units	OrigDataRate	OrigDataStartFrame	OrigNumFrames
60	60	5	27	m	60	91	731
Frame#	Time	RHip			RKnee			RAnkle			RBigToe			RSmallToe			RHeel			LHip			LKnee			LAnkle			LBigToe			LSmallToe			LHeel			Neck			Head			Nose			RShoulder			RElbow			RWrist			RThumb			RIndex			RPinky			LShoulder			LElbow			LWrist			LThumb			LIndex			LPinky		
		X1	Y1	Z1	X2	Y2	Z2	X3	Y3	Z3	X4	Y4	Z4	X5	Y5	Z5	X6	Y6	Z6	X7	Y7	Z7	X8	Y8	Z8	X9	Y9	Z9	X10	Y10	Z10	X11	Y11	Z11	X12	Y12	Z12	X13	Y13	Z13	X14	Y14	Z14	X15	Y15	Z15	X16	Y16	Z16	X17	Y17	Z17	X18	Y18	Z18	X19	Y19	Z19	X20	Y20	Z20	X21	Y21	Z21	X22	Y22	Z22	X23	Y23	Z23	X24	Y24	Z24	X25	Y25	Z25	X26	Y26	Z26	X27	Y27	Z27
92	1.5333333333333334	457.7478534889085	3729.9833297433815	658.1875093508718	838.0365978475364	3740.3531378839593	652.4916537123811	1201.025301006246	3729.12395117329	674.1364000790004	1302.6840798809567	3674.725844457398	666.9910713103585	1299.2413677926897	3729.641886109431	617.0529820271046	1261.4250185512697	3782.5811349587993	740.3961110165985	462.76642934506134	3631.240496538867	851.5841381944977	852.0761954812328	3657.4935270797127	868.5333191124564	1222.7103585340324	3673.7738578613025	853.0197573002847	1306.7504734706476	3554.8550340205097	809.7595851750876	1278.0157899007322	3536.3776127830047	844.7076943985774	1257.014027580476	3710.2907753509103	858.3280062769466	-130.3208658827806	3658.198385524975	758.2492609725646	-397.5945127013974	3648.8115471878127	752.5017986501931	-261.67970286769383	3586.7907787558042	745.7424145536041	-44.90791694920274	3754.8523618349236	640.1779401080653	193.06041717499147	3762.1655125867596	558.5719190271336	339.96412194289957	3562.140747526638	633.4218918048686	411.5696339032772	3551.257123160838	702.38271403495	434.47042482829823	3559.0212034368083	725.2613583602865	448.4791657179782	3502.9971749997626	698.8253354730034	-42.604448053292984	3629.970079469614	933.0147970593646	203.88291846202569	3512.5817887925577	916.6074729747297	354.5951431726301	3487.780570972174	736.151683563718	393.1944233478987	3520.005518233303	632.2155182748472	433.4891679758201	3551.618943861763	634.8514318539192	457.47469670374176	3489.236135322259	693.6661793627088
93	1.55	457.7937061006204	3729.9162275060667	658.1660347096248	838.3618187390465	3740.49443363828	652.5885772705851	1200.8751891148431	3728.7245869781873	673.7737827299252	1302.6166310291837	3674.5774439634624	666.8016916621373	1300.2678102930677	3732.3027089841944	617.6769285614123	1261.2817542076957	3783.355373247811	739.3947307445892	461.45268021850654	3630.240159220726	851.2123725614526	852.8630181459297	3657.49283942661	868.5783831736472	1222.51016805781	3673.764081883303	852.9839367372629	1304.793771294695	3549.670458507355	808.0799184097575	1280.0182709148776	3536.4275338140187	844.4234815847067	1257.8646595319906	3712.7729626830123	859.1511765143657	-130.31881607251717	3657.812096836522	757.8304537926226	-397.07717299162647	3648.617679928159	752.172755318666	-261.8485375737915	3589.01979742975	747.9691867175679	-44.9215786812996	3754.8544213611895	640.1710880199059	193.74897790993518	3762.7135737026983	558.7743517265118	339.16927200558194	3563.0758450355506	633.9461504154917	411.2419014585512	3553.166493686783	702.8404773808334	434.5158477282124	3559.389539314351	725.3040616506144	448.55261273241706	3502.9975881900737	698.797220542635	-42.01025265499248	3629.6570216501123	932.7980068138403	204.67595419158027	3511.668555818176	916.1964909198491	355.15301571805963	3488.2794299948923	735.7960821655034	393.1738453325363	3520.0729824790837	632.2357302449977	433.5386690049693	3551.7194005043652	634.9036150527398	457.6380854830571	3491.2744843036435	693.6484454322261
94	1.5666666666666669	457.7184055003114	3730.0169818470813	658.2418509863754	839.1646165157281	3741.7705986535434	652.975992517396	1201.5058300057174	3729.0582509169353	674.037304152458	1299.8339894655305	3667.4636154933446	663.6932232899107	1299.3346361385377	3729.4626902435316	616.914608157369	1263.0338008932772	3783.976821722989	739.8280007486376	460.85203828408316	3629.7415317273167	851.0369457591671	854.2313974382154	3657.971397338456	868.9578452758348	1222.8068431369124	3673.921132818486	853.115805912998	1304.7639416814532	3549.5699734826712	808.0222924452424	1281.3038264260695	3536.4425613398757	844.1789848911335	1256.3131165231725	3712.0450520237446	858.9487411434601	-129.756203711095	3657.3862011954343	757.5002100266676	-396.9131007962429	3648.6699238513306	752.3026703336111	-261.75981383962653	3587.6282678409243	747.041485226189	-44.90715321272392	3754.8924775041214	640.2029884578569	195.06187013550434	3763.682575115095	559.111997624773	339.1291560122658	3563.1336814401943	633.9822627114463	410.3202237874424	3553.467411488245	702.8357194799576	434.29607539727647	3559.5047412065937	725.2876432185709	448.51172484515115	3503.013983549294	698.7582041446026	-40.856245929685414	3629.2820732147793	932.4679030745501	206.16792367216303	3510.104182456798	915.2202098927221	356.2450606956121	3488.999728757987	735.2402949450448	393.171399653172	3520.1025466698334	632.2582091967793	433.4604175162241	3551.8819567420096	635.005196232451	457.6948592426348	3492.5897659774173	693.522302585434
95	1.5833333333333333	457.28324821698493	3730.578601987066	658.5516977672504	839.9012254207755	3743.4093285118265	653.3414405865112	1203.754413767466	3731.64950455877	676.1953420237394	1296.4723612441094	3659.00416128622	659.7446707644905	1297.550059709407	3724.2949798915843	615.5868721855379	1265.0655093732516	3783.9140373730124	741.1960065871423	461.6900356881595	3630.3194130422253	851.2729371647797	855.1343476873718	3659.151126059475	869.7583074322761	1223.0421669718546	3674.0145812249457	853.20984523679	1306.681010546504	3554.6256317911834	809.6197250820392	1281.1444932399163	3536.1559867444303	844.0196459500247	1254.351265112886	3710.5092898803487	858.4690329198161	-129.35764719299826	3658.7550297801804	758.8524184214526	-397.00884404287774	3650.188393008174	754.19917549525	-261.6753359339744	3586.37049753326	745.8853226344733	-44.89604390551446	3755.005783696328	640.2883834261766	196.20582383986982	3764.3171896040603	559.3644501348992	339.59983441329126	3562.6117445439036	633.6901708657829	410.17271074201057	3555.722754004799	703.5339188457867	433.6564137099607	3559.151627918546	725.1619554244561	448.19959195903164	3503.238662896125	698.8589415667007	-39.63428295092939	3629.544018614049	932.4843119198933	207.4485505623913	3508.7339918595344	914.4304808629054	357.194064286379	3489.455511796292	735.0218749510068	393.15347311925024	3520.181915053162	632.3173124844694	433.12655091283796	3552.3497742972813	635.2753803632562	457.58877060319173	3492.6855319060833	693.2535628502351
96	1.6	456.37045479309563	3731.7458473536835	659.1565650431102	839.8146437550334	3744.567343844259	653.3845832500305	1207.39941815619	3737.226581533788	680.8094840052346	1294.7965666184293	3654.86236974065	657.7986035929239	1296.5493361935155	3721.513060285763	614.9080860627632	1266.12769461032	3783.7112530959885	742.1328908237298	462.9655474172138	3631.222923440573	851.6315614908533	854.8677430538229	3660.9866092598822	870.926406296624	1222.5586527394303	3673.782147147065	853.0362652466539	1308.787256395146	3560.1890699064825	811.3771677818013	1280.5341940275905	3535.890553841696	843.972061907298	1253.075780967777	3708.993445748795	857.9657495312225	-129.62252160731305	3663.055525876773	763.2055627878113	-397.3079477221609	3654.1423884793517	758.7166914575431	-261.80802248405996	3589.5564258984746	747.3730394590998	-44.922914521702474	3755.1734031651217	640.4018228229528	196.11766866632044	3763.81700589716	559.2832400347135	339.59116508841896	3562.667680433223	633.7073891817874	410.9103240258713	3561.121206213045	705.2264031876316	432.3632901021344	3558.33497384247	724.9258130459792	447.6720840014507	3503.6976103109373	699.167398895628	-39.024987394833204	3630.8178163935722	933.2820357627145	208.02701171680974	3508.0690720862412	914.1643455324313	357.0759389814712	3489.2178739587753	735.4425119540222	393.115514128252	3520.3931600071264	632.426100091823	432.6356749251487	3553.1279342131284	635.701890737201	457.6724777939701	3493.324809019183	694.1468857553613
